# Blender 3.5.1
# www.blender.org
o Plane.002
v 0.006767 4.958810 0.317094
v -0.002103 4.658640 0.334517
v 0.001940 4.529305 0.191867
v -0.006153 0.544855 0.597398
v -0.000145 0.502355 0.235892
v -0.010808 -0.250242 0.596817
v -0.036123 -0.328484 -0.555877
v 0.003994 5.094689 -0.277343
v 0.002163 5.082438 0.335600
v 0.106220 5.092642 0.360499
v 0.116057 5.067902 -0.295256
v 0.100706 4.978504 0.279225
v 0.017470 4.956230 -0.222903
v 0.103603 4.681008 0.317137
v 0.094040 4.459572 0.127884
v 0.009491 4.344636 0.082212
v 0.104882 4.071971 0.026068
v 0.062783 3.384652 0.053546
v 0.026905 3.211348 -0.000398
v 0.055736 1.826086 0.046992
v 0.026230 1.707593 -0.006085
v 0.053350 1.566773 0.097111
v 0.083580 1.689119 -0.005383
v 0.029987 0.651089 0.053889
v 0.096835 0.552639 0.606643
v 0.098530 0.539871 0.250230
v 0.079781 0.646248 0.077719
v 0.059980 -0.352075 0.583003
v 0.048337 4.804929 -0.318184
v -0.002751 4.568523 -0.219319
v 0.008790 4.479717 -0.115927
v 0.105463 4.726002 -0.234451
v 0.115762 4.573353 -0.209709
v 0.096228 4.360406 0.075811
v 0.036887 4.271801 -0.034449
v 0.068034 3.192723 -0.014698
v 0.057779 1.310191 -0.049522
v 0.055563 0.706944 -0.044624
v 0.002358 0.554872 -0.210844
v 0.107034 0.543697 -0.173890
v 0.099096 0.550344 -0.542375
v 0.028447 0.551776 -0.547870
v -0.010176 -0.606618 0.506197
v 0.089194 -0.708038 -0.417582
v 0.098958 -0.701373 0.394092
v 0.034858 -0.869492 0.303400
v 0.125281 -1.000044 -0.039162
v 0.050753 -1.016237 0.027990
v -0.008137 -0.773224 -0.358374
v 0.063581 -0.400715 -0.563392
v 0.050778 -0.924196 -0.220184
vn -0.9951 -0.0988 -0.0049
vn 0.9980 -0.0605 0.0173
vn -0.9992 -0.0343 -0.0196
vn 0.7176 -0.6908 -0.0883
vn -0.2158 -0.1524 0.9645
vn -0.9983 0.0265 -0.0523
vn 0.6151 0.2143 -0.7587
vn -0.0350 0.6502 -0.7590
vn 0.2518 -0.6005 0.7589
vn -0.9985 -0.0520 0.0189
vn 0.1663 -0.5955 0.7860
vn -0.9994 -0.0306 -0.0173
vn 0.1026 -0.1661 0.9808
vn -0.9787 -0.0484 -0.1996
vn 0.9745 -0.0510 0.2183
vn -0.8726 -0.0015 0.4883
vn 0.9365 0.0582 0.3457
vn -0.9630 0.0119 0.2693
vn 0.9519 0.0209 0.3057
vn -0.4340 -0.0314 0.9004
vn -0.2107 0.7737 0.5974
vn -0.3383 0.9339 -0.1154
vn -0.3688 0.7727 0.5166
vn -0.0894 -0.0002 0.9960
vn 0.2273 0.9733 -0.0333
vn -0.1289 0.1190 -0.9845
vn 0.7529 -0.1378 -0.6435
vn -0.6798 0.5171 0.5200
vn 0.8069 -0.0411 -0.5892
vn 0.9325 0.1838 -0.3109
vn -0.9906 -0.1365 -0.0067
vn 0.0901 -0.5180 -0.8507
vn 0.8315 0.1186 -0.5428
vn -0.3048 0.0569 -0.9507
vn 0.9959 -0.0049 0.0904
vn 0.8956 0.0120 0.4447
vn 0.9805 -0.0052 -0.1967
vn -0.9652 -0.0182 -0.2609
vn 0.3141 0.6483 -0.6936
vn 0.1006 0.9948 0.0158
vn 0.9467 0.3208 -0.0282
vn 0.9781 0.2072 0.0215
vn 0.9997 -0.0100 -0.0217
vn 0.1471 -0.0318 0.9886
vn 0.9579 -0.0464 0.2835
vn 1.0000 0.0009 0.0047
vn 0.9999 -0.0010 -0.0120
vn 0.5376 -0.7309 0.4205
vn -0.9974 -0.0221 0.0685
vn 0.0779 0.0191 -0.9968
vn -0.0652 0.0139 -0.9978
vn -0.3524 -0.3983 -0.8469
vn -0.9833 -0.1779 0.0380
vn 0.6423 -0.5759 -0.5057
vn -0.8460 -0.4999 -0.1855
vn -0.1090 -0.9320 -0.3457
vn -0.9998 0.0059 -0.0173
vn -0.1022 0.9946 0.0196
vn 0.2086 -0.9780 0.0088
vn -0.3490 -0.1218 -0.9292
vn 0.9976 0.0009 -0.0690
vn -0.9746 0.2228 0.0207
vn 0.5441 0.8302 -0.1216
vn 0.9735 0.1227 -0.1928
vn 0.5133 0.0029 0.8582
vn -0.8665 0.0242 0.4986
vn -0.8348 0.0015 0.5505
vn -0.9339 0.0761 0.3493
vn -0.0721 0.9967 -0.0361
vn -0.9273 0.0449 -0.3717
vn -0.9990 0.0437 -0.0005
vn -0.9943 0.0736 -0.0776
vn -0.9853 -0.1363 -0.1028
vn 0.4784 0.1394 0.8670
vn 0.1355 0.0021 0.9908
vn 0.0903 -0.4008 -0.9117
vn 0.5618 0.1692 0.8098
vn -0.1870 0.7936 0.5791
vn 0.9116 -0.3569 -0.2038
vn -0.9769 -0.1783 -0.1181
vn 0.1511 0.0528 0.9871
vn 0.6119 -0.0311 -0.7903
vn -0.3269 0.0037 -0.9451
vn 0.0103 -0.0061 -0.9999
vn 0.0483 0.1123 -0.9925
vn -0.8164 -0.0017 -0.5775
vn 0.9497 -0.0283 -0.3120
vn 0.0209 0.9998 -0.0076
vn -0.1636 -0.2434 0.9560
vn 0.4875 -0.3726 0.7896
vn 0.3253 -0.5420 0.7748
vn -0.9953 -0.0299 -0.0918
vn -0.9474 0.0773 -0.3106
vn 0.9943 0.1062 -0.0128
vn 0.7670 -0.5056 0.3951
vn -0.9976 -0.0363 0.0595
vn 0.9996 -0.0181 0.0199
vn 0.9712 -0.0311 -0.2361
vn -0.2392 -0.4324 -0.8694
vn 0.0028 -0.6746 -0.7382
vn -0.9307 0.3641 -0.0352
vn -0.2835 -0.0987 0.9539
vt 0.451923 0.232823
vt 0.055851 0.000000
vt 0.446258 0.188051
vt 0.482868 0.132543
vt 0.477277 0.496909
vt 0.052439 0.050123
vt 0.472679 0.448573
vt 0.076064 0.072037
vt 0.442258 0.120493
vt 0.497375 0.471792
vt 0.001279 0.737593
vt 0.467181 0.083066
vt 0.464203 0.128992
vt 0.061662 0.745400
vt 0.492516 0.341843
vt 0.000000 0.870541
vt 0.512941 0.347753
vt 0.192774 0.885638
vt 0.446258 0.153983
vt 0.512892 0.172509
vt 0.472679 0.332698
vt 0.472679 0.230141
vt 0.477173 0.517780
vt 0.498127 0.088043
vt 0.464203 0.079994
vt 0.512892 0.079994
vt 0.453445 0.448222
vt 0.492516 0.520098
vt 0.453445 0.338456
vt 0.464203 0.156913
vt 0.531392 0.021132
vt 0.469673 0.518000
vt 0.498127 0.127100
vt 0.434904 0.433886
vt 0.434692 0.349583
vt 0.495010 0.079994
vt 0.449642 0.323104
vt 0.453445 0.500600
vt 0.426721 0.153357
vt 0.498127 0.171040
vt 0.384923 0.438319
vt 0.458617 0.079994
vt 0.489590 0.451320
vt 0.428131 0.104630
vt 0.438180 0.035756
vt 0.478777 0.388028
vt 0.094062 0.103161
vt 0.272068 0.000000
vt 0.541607 0.230141
vt 0.492516 0.341219
vt 0.400423 0.141330
vt 0.279628 0.114658
vt 0.478999 0.230141
vt 0.097013 0.264021
vt 0.105845 0.292927
vt 0.426721 0.000000
vt 0.531016 0.343046
vt 0.285500 0.375290
vt 0.095405 0.524648
vt 0.532720 0.545628
vt 0.491424 0.226515
vt 0.104168 0.544418
vt 0.295038 0.418417
vt 0.519791 0.021132
vt 0.086574 0.567910
vt 0.541607 0.548753
vt 0.482868 0.222556
vt 0.277433 0.398534
vt 0.519791 0.172509
vt 0.475648 0.166901
vt 0.092276 0.721012
vt 0.512941 0.473514
vt 0.384923 0.585841
vt 0.482868 0.079994
vt 0.480836 0.128020
vt 0.325377 0.589605
vt 0.512892 0.172061
vt 0.482868 0.161960
vt 0.295996 0.572534
vt 0.384923 0.737104
vt 0.503245 0.324786
vt 0.462634 0.192825
vt 0.519791 0.063498
vt 0.423875 0.338456
vt 0.471461 0.437143
vt 0.474427 0.019711
vt 0.144934 0.066218
vt 0.384923 0.321318
vt 0.454330 0.437143
vt 0.471461 0.394904
vt 0.485805 0.000000
vt 0.458617 0.000000
vt 0.446258 0.079994
vt 0.396443 0.489286
vt 0.458617 0.036910
vt 0.127446 0.080934
vt 0.485805 0.045126
vt 0.531392 0.079176
vt 0.469673 0.464058
vt 0.396443 0.448222
vt 0.531026 0.105083
vt 0.453445 0.397599
vt 0.384923 0.469323
vt 0.474427 0.059678
vt 0.426721 0.230141
vt 0.492406 0.390149
vt 0.426721 0.020921
vt 0.474427 0.000000
vt 0.384923 0.187807
vt 0.455376 0.338456
vt 0.113365 0.115693
vt 0.405524 0.176177
vt 0.269090 0.147083
vt 0.537681 0.344559
vt 0.491424 0.171040
vt 0.110642 0.611114
vt 0.271678 0.462007
vt 0.442668 0.226571
vt 0.275196 0.562853
vt 0.108774 0.711979
vt 0.442668 0.188051
vt 0.464203 0.176279
vt 0.136480 0.737458
vt 0.426721 0.194580
vt 0.478835 0.166901
vt 0.254452 0.590927
vt 0.531016 0.231413
vt 0.478835 0.218652
vt 0.192774 0.591464
vt 0.520163 0.230141
vt 0.192774 0.738728
vt 0.468571 0.221755
vt 0.493407 0.280347
vt 0.014534 0.930311
vt 0.219259 0.801291
vt 0.531016 0.413585
vt 0.512941 0.260951
vt 0.355003 0.796516
vt 0.407709 0.489049
vt 0.504891 0.230141
vt 0.340411 0.824810
vt 0.047860 0.974870
vt 0.407709 0.448222
vt 0.446258 0.202433
vt 0.283957 0.848529
vt 0.396443 0.455643
vt 0.093627 1.000000
vt 0.457955 0.192825
vt 0.158869 0.959786
vt 0.515068 0.427476
vt 0.193424 0.750470
vt 0.528741 0.357528
vt 0.253134 0.836399
vt 0.135305 0.985067
vt 0.457955 0.229922
vt 0.522172 0.461919
s 0
f 13/37/1 9/22/1 8/21/1
f 11/29/2 10/27/2 12/34/2
f 1/1/3 9/22/3 13/37/3
f 13/35/4 11/29/4 12/34/4
f 10/28/5 9/23/5 1/5/5
f 3/8/6 2/6/6 1/2/6
f 14/39/7 3/9/7 1/3/7
f 15/44/8 3/9/8 14/39/8
f 14/43/9 2/7/9 16/46/9
f 16/47/10 2/6/10 3/8/10
f 14/43/11 16/46/11 34/106/11
f 31/96/12 16/47/12 3/8/12
f 34/106/13 16/46/13 17/50/13
f 35/111/14 18/54/14 16/47/14
f 17/48/15 18/52/15 36/113/15
f 21/62/16 20/59/16 19/55/16
f 23/68/17 20/58/17 22/63/17
f 21/62/18 24/71/18 22/65/18
f 23/68/19 22/63/19 27/79/19
f 22/64/20 24/69/20 27/77/20
f 5/13/21 27/78/21 24/70/21
f 5/13/22 4/12/22 26/75/22
f 26/75/23 27/78/23 5/13/23
f 25/72/24 4/10/24 6/15/24
f 11/30/25 8/19/25 10/25/25
f 11/30/26 29/82/26 8/19/26
f 29/83/27 11/31/27 32/98/27
f 32/97/28 30/86/28 31/91/28
f 32/98/29 33/101/29 29/83/29
f 31/92/30 15/45/30 34/107/30
f 35/111/31 31/96/31 30/87/31
f 33/102/32 35/110/32 30/90/32
f 35/112/33 34/109/33 17/51/33
f 36/114/34 19/57/34 17/49/34
f 36/113/35 18/52/35 20/58/35
f 36/113/36 20/58/36 23/68/36
f 37/117/37 27/79/37 38/119/37
f 38/120/38 24/71/38 21/62/38
f 39/121/39 38/118/39 40/124/39
f 39/122/40 40/125/40 41/128/40
f 40/126/41 38/119/41 27/79/41
f 40/126/42 27/79/42 26/76/42
f 41/129/43 40/126/43 44/135/43
f 25/72/44 6/15/44 28/81/44
f 45/138/45 25/73/45 28/80/45
f 45/138/46 26/76/46 25/73/46
f 26/76/47 45/138/47 44/135/47
f 47/143/48 46/139/48 48/146/48
f 46/142/49 5/14/49 7/18/49
f 50/152/50 42/130/50 41/127/50
f 50/152/51 7/17/51 42/130/51
f 7/17/52 50/152/52 49/150/52
f 48/147/53 46/142/53 49/149/53
f 51/153/54 44/135/54 47/145/54
f 51/154/55 48/147/55 49/149/55
f 51/155/56 47/144/56 48/148/56
f 5/14/57 6/16/57 4/11/57
f 10/26/58 8/20/58 9/24/58
f 1/4/59 13/36/59 12/33/59
f 12/33/60 14/40/60 1/4/60
f 14/41/61 12/34/61 10/27/61
f 24/71/62 39/123/62 5/14/62
f 31/93/63 3/9/63 15/44/63
f 15/45/64 14/42/64 34/107/64
f 17/50/65 16/46/65 18/53/65
f 35/111/66 19/55/66 18/54/66
f 19/55/67 20/59/67 18/54/67
f 21/62/68 22/65/68 20/59/68
f 26/75/69 4/12/69 25/74/69
f 29/84/70 30/88/70 13/37/70
f 5/14/71 39/123/71 7/18/71
f 42/131/72 7/18/72 39/123/72
f 8/21/73 29/84/73 13/37/73
f 32/99/74 11/32/74 13/38/74
f 32/99/75 13/38/75 30/89/75
f 33/102/76 30/90/76 29/85/76
f 33/103/77 32/100/77 31/94/77
f 34/108/78 33/104/78 31/95/78
f 35/112/79 33/105/79 34/109/79
f 31/96/80 35/111/80 16/47/80
f 14/43/81 1/5/81 2/7/81
f 17/51/82 19/56/82 35/112/82
f 36/114/83 21/60/83 19/57/83
f 36/114/84 23/66/84 21/60/84
f 23/67/85 37/115/85 21/61/85
f 37/116/86 38/120/86 21/62/86
f 37/117/87 23/68/87 27/79/87
f 42/132/88 39/122/88 41/128/88
f 43/133/89 28/81/89 6/15/89
f 45/137/90 28/81/90 43/133/90
f 45/137/91 43/133/91 46/140/91
f 5/14/92 46/142/92 6/16/92
f 6/16/93 46/142/93 43/134/93
f 47/145/94 44/135/94 45/138/94
f 46/141/95 47/145/95 45/138/95
f 7/18/96 49/149/96 46/142/96
f 44/135/97 40/126/97 26/76/97
f 50/151/98 41/129/98 44/135/98
f 50/152/99 44/136/99 49/150/99
f 44/136/100 51/156/100 49/150/100
f 24/71/101 38/120/101 39/123/101
f 14/43/102 10/28/102 1/5/102
