# Blender 3.5.1
# www.blender.org
o Landscape.006
v -4.304392 -0.999295 4.999867
v -4.411926 1.459734 5.071085
v -4.692589 4.079496 4.993045
v -5.000000 4.125000 5.000000
v -4.341042 0.074406 1.750417
v -4.494019 2.151635 3.107593
v -4.706007 4.120846 1.249488
v -4.565281 3.022129 0.600843
v -4.406696 1.242347 -0.481518
v -4.245523 -0.001454 -1.857205
v -4.649069 4.105026 -0.877035
v -4.537047 2.601541 -2.717158
v -4.692333 4.118751 -2.822793
v -5.000000 4.125000 -5.000000
v -4.287490 0.184157 -3.782673
v -4.800965 4.104398 -4.984198
v -4.336517 -0.835668 -5.001053
v -4.519418 1.953840 -4.977307
v -5.000000 4.125000 -5.000000
v -5.167301 -0.896279 -4.303665
v -4.718716 3.580060 -4.671278
v -1.138292 1.758116 -4.384051
v -1.906772 0.019770 -4.204695
v -0.411424 4.124379 -4.795747
v 0.671654 2.415246 -4.494951
v 0.614502 0.131353 -4.216239
v 4.960535 1.844654 -4.472607
v 3.151380 3.422359 -4.677442
v 5.000000 4.125000 -5.000000
v 4.992677 4.120987 -4.703634
v 4.992334 3.139143 -4.590560
v 5.003719 -0.966063 -4.327738
v -4.631967 2.802196 -4.591634
v -4.810957 4.167470 -4.918309
v 4.789866 4.113197 4.998184
v 0.828686 3.499673 4.669534
v 2.027622 0.186334 4.247489
v 4.781498 4.078444 4.802875
v -0.882192 0.002240 4.237324
v -1.750932 1.977032 4.488239
v -4.486779 1.820355 4.496579
v -5.000000 4.125000 5.000000
v 4.262477 -0.951810 4.068034
v 4.655757 3.117140 4.641024
v -5.096933 -0.975238 4.019319
v -4.592441 2.932805 4.626523
v -4.685151 4.095763 4.722858
v 4.577754 3.949731 -3.182974
v 4.441715 1.757921 -2.718910
v 4.233521 0.084838 -1.626938
v 4.668665 4.123930 -1.671034
v 4.537020 3.488974 -1.625072
v 4.406946 0.886567 -1.211322
v 4.642401 4.113109 -0.164249
v 5.000000 4.125000 -5.000000
v 4.822108 4.117249 1.758219
v 4.661690 3.690145 1.530905
v 4.374157 0.135198 1.138006
v 4.467313 1.994235 2.138084
v 4.718897 3.568328 2.844267
v 4.350988 1.650525 3.310922
v 4.214058 0.002512 3.599025
v 4.789857 4.122932 4.986674
v 4.635379 2.928428 4.995439
v 5.000000 4.125000 5.000000
v 4.770491 4.123223 3.526185
v 4.443292 1.561985 4.977442
v 4.340758 -0.971402 4.995883
v 4.479328 3.342514 -4.623382
v 4.220111 -0.913249 -4.327810
v 4.966884 4.109099 -4.691031
v -5.000412 0.094569 5.006213
v -4.993589 0.181942 3.546391
v -5.000019 0.003042 1.241173
v -5.023623 0.140366 -2.220424
v -4.988132 0.062253 -4.984750
v -3.934512 0.280191 -3.554716
v -3.417841 -0.063517 -2.242996
v -3.679812 0.080329 4.980958
v -3.327300 0.335296 -0.440059
v -3.189910 0.115326 0.502878
v -2.628240 0.237197 2.921140
v -2.678199 0.046369 -3.592534
v -1.874497 0.068340 1.789300
v 0.035661 0.342197 1.688223
v -1.992698 0.137720 -0.714039
v -1.758801 0.280320 -5.007782
v -1.062340 -0.009602 5.042074
v 0.026623 0.340463 -2.231642
v -0.203771 0.102982 -5.024259
v -0.015357 -0.081596 -0.066886
v -0.387216 0.185795 3.477782
v 0.335793 0.281239 -3.607891
v 1.093361 0.134158 4.988951
v 1.433337 -0.022944 2.851582
v 1.094755 0.135622 -1.779025
v 2.637918 0.116904 1.781057
v 2.191363 0.169865 -3.791481
v 3.322982 0.255726 2.947850
v 3.520142 0.177668 -0.548904
v 2.013308 0.049068 -3.041414
v 3.432004 0.028886 4.998807
v 5.028043 0.128817 5.009288
v 4.999386 0.182359 -5.017844
v 4.991883 0.051010 -3.514701
v 5.006332 0.136700 0.777279
v 5.030823 0.149907 3.121643
v 4.998672 0.231175 -2.194563
vn 0.9970 0.0774 -0.0059
vn 0.9994 0.0340 0.0060
vn 0.9964 0.0833 0.0131
vn 0.9955 0.0943 -0.0016
vn 0.9364 0.3508 0.0116
vn 0.9550 0.2965 -0.0006
vn 0.9951 0.0982 0.0069
vn 0.9954 0.0953 0.0097
vn 0.9999 0.0156 -0.0004
vn 0.9955 0.0938 -0.0135
vn 0.0913 0.9958 0.0059
vn 0.9511 0.3073 -0.0312
vn 0.9677 0.2521 0.0007
vn 0.9957 0.0709 -0.0598
vn 0.8904 0.4527 -0.0478
vn 0.0530 0.9986 -0.0046
vn 0.9966 0.0804 -0.0180
vn 0.9992 0.0022 -0.0397
vn -0.0074 0.1415 -0.9899
vn -0.0064 0.1665 -0.9860
vn 0.0035 0.1466 -0.9892
vn -0.0002 0.9081 0.4187
vn -0.0011 0.1360 0.9907
vn 0.0074 0.1479 0.9890
vn -0.0244 -0.0071 0.9997
vn 0.0082 0.0132 0.9999
vn -0.0029 0.1135 0.9935
vn 0.0040 0.0763 0.9971
vn -0.0106 0.9202 0.3914
vn 0.0004 0.9999 0.0135
vn -0.9650 0.2616 -0.0198
vn -0.9734 0.2053 -0.1018
vn -0.9919 0.1263 0.0127
vn 0.0180 0.9502 -0.3110
vn 0.0206 0.8872 -0.4609
vn -0.0347 0.0746 0.9966
vn -0.0232 0.2987 0.9541
vn 0.0372 0.0473 0.9982
vn -0.0310 0.1032 0.9942
vn 0.0041 0.1554 -0.9878
vn 0.0029 0.1465 -0.9892
vn 0.0012 0.9845 -0.1752
vn 0.0032 0.9195 -0.3930
vn 0.0026 0.9946 -0.1036
vn -0.0072 0.2011 -0.9795
vn 0.0022 0.1355 -0.9908
vn -0.0020 0.0949 -0.9955
vn 0.0024 0.9587 -0.2843
vn -0.0090 0.1462 -0.9892
vn -0.9973 0.0730 0.0068
vn -0.9974 0.0690 0.0183
vn -0.9991 0.0435 -0.0014
vn -0.9928 0.1152 0.0325
vn -0.9956 0.0921 0.0182
vn -0.9609 0.2755 0.0287
vn -0.8543 0.5197 -0.0023
vn -0.2982 0.9541 -0.0269
vn -0.7722 0.6349 0.0244
vn -0.9853 0.1647 0.0461
vn -0.9919 0.1270 -0.0096
vn -0.9888 0.1490 0.0127
vn -0.9858 0.1680 0.0007
vn -0.9793 0.2021 -0.0138
vn -0.9998 0.0042 0.0194
vn -0.9538 0.3003 -0.0083
vn -0.0138 0.9999 -0.0008
vn -0.9281 0.3721 0.0124
vn -0.9904 0.1379 0.0074
vn -0.9979 -0.0421 0.0484
vn -0.9882 0.1447 0.0498
vn 0.1672 0.9859 -0.0076
vn -0.1453 0.9888 -0.0356
vn -0.0027 0.9999 0.0148
vn -0.0151 0.9999 -0.0021
vn -0.0359 0.9992 -0.0182
vn 0.0224 0.9995 -0.0225
vn 0.0173 0.9995 -0.0253
vn -0.0159 0.9999 -0.0065
vn -0.0428 0.9987 0.0271
vn -0.0009 0.9972 0.0747
vn 0.0537 0.9895 0.1340
vn -0.0786 0.9946 0.0684
vn -0.0734 0.9969 -0.0297
vn -0.0039 0.9983 0.0581
vn -0.0701 0.9947 -0.0753
vn -0.0754 0.9943 0.0749
vn -0.0097 0.9930 0.1178
vn -0.0291 0.9989 -0.0380
vn 0.0677 0.9949 -0.0753
vn 0.1040 0.9945 0.0108
vn -0.0337 0.9990 -0.0288
vn 0.0428 0.9975 0.0568
vn -0.0153 0.9983 0.0556
vn 0.0520 0.9972 -0.0539
vn -0.0208 0.9998 0.0074
vn 0.0090 0.9976 0.0686
vn -0.0747 0.9972 -0.0084
vn -0.0252 0.9997 0.0048
vn -0.0256 0.9935 0.1112
vn 0.0062 0.9997 -0.0216
vn 0.0514 0.9985 0.0190
vn 0.0286 0.9995 0.0100
vn 0.0322 0.9959 0.0839
vn 0.0616 0.9981 0.0028
vn -0.0134 0.9987 -0.0494
vn 0.0119 0.9981 0.0598
vn 0.1034 0.9683 0.2272
vn -0.0321 0.0906 0.9954
vt 0.756543 0.500211
vt 0.742344 0.681461
vt 0.746118 0.892782
vt 0.749082 1.000000
vt 0.828778 0.588936
vt 0.791354 0.739457
vt 0.838988 0.893816
vt 0.852860 0.802961
vt 0.878514 0.673868
vt 0.909613 0.586379
vt 0.888497 0.874233
vt 0.932845 0.774576
vt 0.931844 0.886564
vt 0.991788 0.982622
vt 0.949661 0.603278
vt 0.985942 0.912810
vt 0.991788 0.542106
vt 0.987750 0.735997
vt 0.004093 0.016935
vt 0.248375 0.000000
vt 0.035359 0.044336
vt 0.122690 0.393316
vt 0.204254 0.318703
vt 0.012376 0.463577
vt 0.091478 0.568579
vt 0.198339 0.563160
vt 0.114871 0.987671
vt 0.041795 0.810255
vt 0.000000 0.991345
vt 0.006984 0.990646
vt 0.053502 0.990696
vt 0.248375 0.992032
vt 0.072083 0.052796
vt 0.007068 0.035357
vt 0.742344 0.969777
vt 0.708918 0.581188
vt 0.552385 0.698880
vt 0.737448 0.968956
vt 0.542955 0.413436
vt 0.636186 0.328176
vt 0.628089 0.059795
vt 0.742344 0.009398
vt 0.499045 0.918150
vt 0.691842 0.956642
vt 0.495375 0.000000
vt 0.680700 0.049405
vt 0.735658 0.040284
vt 0.788239 0.358104
vt 0.805948 0.204405
vt 0.839521 0.071003
vt 0.823698 0.388705
vt 0.824997 0.329185
vt 0.847647 0.152616
vt 0.858834 0.381362
vt 0.742344 0.500211
vt 0.912210 0.435793
vt 0.903349 0.368227
vt 0.897829 0.118837
vt 0.923918 0.230923
vt 0.939907 0.376849
vt 0.950315 0.184520
vt 0.949975 0.083793
vt 0.995436 0.424463
vt 0.995724 0.321057
vt 0.995957 0.500211
vt 0.958748 0.419339
vt 0.995363 0.198348
vt 0.993330 0.019250
vt 0.750333 0.310770
vt 0.776610 0.000000
vt 0.749535 0.488669
vt 0.249259 0.984064
vt 0.283843 0.983385
vt 0.338920 0.984019
vt 0.420919 0.986810
vt 0.491356 0.983408
vt 0.456239 0.882079
vt 0.424906 0.831479
vt 0.249508 0.855039
vt 0.380494 0.822691
vt 0.356824 0.809450
vt 0.298497 0.752680
vt 0.459001 0.758885
vt 0.326434 0.679534
vt 0.331660 0.489590
vt 0.388741 0.690677
vt 0.495375 0.667625
vt 0.248375 0.599161
vt 0.428563 0.490833
vt 0.494750 0.513259
vt 0.376014 0.494652
vt 0.287310 0.532041
vt 0.460643 0.460828
vt 0.251681 0.384706
vt 0.303406 0.351558
vt 0.417043 0.386956
vt 0.332125 0.233159
vt 0.465866 0.278541
vt 0.305509 0.165628
vt 0.387926 0.147025
vt 0.447007 0.296017
vt 0.256363 0.154818
vt 0.259768 0.000139
vt 0.495375 0.003311
vt 0.459555 0.004020
vt 0.358612 0.002534
vt 0.303884 0.000000
vt 0.427317 0.003326
s 1
f 2/2/1 1/1/2 5/5/3
f 5/5/3 6/6/4 2/2/1
f 7/7/5 3/3/6 6/6/4
f 8/8/7 6/6/4 9/9/8
f 9/9/8 10/10/9 12/12/10
f 4/4/11 7/7/5 13/13/12
f 13/13/12 11/11/13 12/12/10
f 12/12/10 10/10/9 15/15/14
f 16/16/15 14/14/16 13/13/12
f 13/13/12 12/12/10 18/18/17
f 18/18/17 12/12/10 17/17/18
f 10/10/9 17/17/18 15/15/14
f 7/7/5 4/4/11 3/3/6
f 8/8/7 7/7/5 6/6/4
f 5/5/3 9/9/8 6/6/4
f 8/8/7 11/11/13 7/7/5
f 9/9/8 5/5/3 10/10/9
f 13/13/12 7/7/5 11/11/13
f 14/14/16 4/4/11 13/13/12
f 17/17/18 12/12/10 15/15/14
f 13/13/12 18/18/17 16/16/15
f 43/43/19 45/45/20 37/37/21
f 24/24/22 22/22/23 25/25/24
f 22/22/23 23/23/25 26/26/26
f 22/22/23 26/26/26 25/25/24
f 24/24/22 25/25/24 28/28/27
f 28/28/27 25/25/24 27/27/28
f 24/24/22 30/30/29 29/29/30
f 48/48/31 71/71/32 69/69/33
f 34/34/34 24/24/22 19/19/35
f 19/19/35 24/24/22 29/29/30
f 22/22/23 20/20/36 23/23/25
f 21/21/37 22/22/23 24/24/22
f 25/25/24 26/26/26 27/27/28
f 24/24/22 28/28/27 30/30/29
f 27/27/28 26/26/26 32/32/38
f 28/28/27 27/27/28 31/31/39
f 28/28/27 31/31/39 30/30/29
f 44/44/40 37/37/21 36/36/41
f 35/35/42 38/38/43 42/42/44
f 36/36/41 39/39/45 40/40/46
f 45/45/20 40/40/46 39/39/45
f 36/36/41 46/46/47 47/47/48
f 39/39/45 36/36/41 37/37/21
f 40/40/46 41/41/49 36/36/41
f 41/41/49 46/46/47 36/36/41
f 38/38/43 47/47/48 42/42/44
f 50/50/50 49/49/51 70/70/52
f 53/53/53 52/52/54 49/49/51
f 52/52/54 54/54/55 51/51/56
f 55/55/57 54/54/55 56/56/58
f 56/56/58 54/54/55 57/57/59
f 57/57/59 54/54/55 53/53/53
f 57/57/59 53/53/53 59/59/60
f 60/60/61 56/56/58 57/57/59
f 61/61/62 59/59/60 58/58/63
f 61/61/62 58/58/63 62/62/64
f 66/66/65 56/56/58 60/60/61
f 56/56/58 66/66/65 65/65/66
f 65/65/66 66/66/65 63/63/67
f 51/51/56 55/55/57 71/71/32
f 53/53/53 49/49/51 50/50/50
f 51/51/56 48/48/31 52/52/54
f 52/52/54 48/48/31 49/49/51
f 54/54/55 52/52/54 53/53/53
f 58/58/63 50/50/50 62/62/64
f 55/55/57 51/51/56 54/54/55
f 58/58/63 53/53/53 50/50/50
f 59/59/60 53/53/53 58/58/63
f 55/55/57 56/56/58 65/65/66
f 60/60/61 59/59/60 64/64/68
f 68/68/69 67/67/70 62/62/64
f 64/64/68 63/63/67 66/66/65
f 77/77/71 76/76/72 75/75/73
f 80/80/74 78/78/75 74/74/76
f 82/82/77 74/74/76 73/73/78
f 84/84/79 74/74/76 82/82/77
f 82/82/77 73/73/78 79/79/80
f 81/81/81 74/74/76 84/84/79
f 83/83/82 75/75/73 78/78/75
f 83/83/82 76/76/72 77/77/71
f 86/86/83 78/78/75 80/80/74
f 89/89/84 83/83/82 78/78/75
f 86/86/83 80/80/74 81/81/81
f 90/90/85 83/83/82 89/89/84
f 89/89/84 78/78/75 86/86/83
f 92/92/86 82/82/77 88/88/87
f 92/92/86 84/84/79 82/82/77
f 92/92/86 85/85/88 84/84/79
f 93/93/89 90/90/85 89/89/84
f 96/96/90 89/89/84 91/91/91
f 101/101/92 93/93/89 89/89/84
f 95/95/93 94/94/94 99/99/95
f 98/98/96 93/93/89 101/101/92
f 96/96/90 85/85/88 97/97/97
f 96/96/90 97/97/97 100/100/98
f 99/99/95 94/94/94 102/102/99
f 105/105/100 98/98/96 101/101/92
f 99/99/95 102/102/99 103/103/101
f 97/97/97 99/99/95 106/106/102
f 104/104/103 98/98/96 105/105/100
f 107/107/104 106/106/102 99/99/95
f 103/103/101 107/107/104 99/99/95
f 108/108/105 100/100/98 106/106/102
f 79/79/80 73/73/78 72/72/106
f 78/78/75 75/75/73 74/74/76
f 74/74/76 81/81/81 80/80/74
f 83/83/82 77/77/71 75/75/73
f 83/83/82 87/87/107 76/76/72
f 84/84/79 85/85/88 81/81/81
f 86/86/83 81/81/81 85/85/88
f 83/83/82 90/90/85 87/87/107
f 88/88/87 82/82/77 79/79/80
f 91/91/91 89/89/84 86/86/83
f 85/85/88 91/91/91 86/86/83
f 94/94/94 92/92/86 88/88/87
f 94/94/94 95/95/93 92/92/86
f 95/95/93 85/85/88 92/92/86
f 98/98/96 90/90/85 93/93/89
f 95/95/93 97/97/97 85/85/88
f 96/96/90 101/101/92 89/89/84
f 95/95/93 99/99/95 97/97/97
f 98/98/96 104/104/103 90/90/85
f 100/100/98 101/101/92 96/96/90
f 101/101/92 100/100/98 108/108/105
f 97/97/97 106/106/102 100/100/98
f 108/108/105 105/105/100 101/101/92
f 33/33/108 22/22/23 21/21/37
f 21/21/37 24/24/22 34/34/34
f 6/6/4 3/3/6 2/2/1
f 44/44/40 36/36/41 38/38/43
f 45/45/20 39/39/45 37/37/21
f 38/38/43 36/36/41 47/47/48
f 49/49/51 48/48/31 69/69/33
f 68/68/69 50/50/50 70/70/52
f 71/71/32 48/48/31 51/51/56
f 33/33/108 20/20/36 22/22/23
f 11/11/13 8/8/7 12/12/10
f 8/8/7 9/9/8 12/12/10
f 62/62/64 67/67/70 61/61/62
f 67/67/70 64/64/68 59/59/60
f 61/61/62 67/67/70 59/59/60
f 64/64/68 66/66/65 60/60/61
f 60/60/61 57/57/59 59/59/60
f 96/96/90 91/91/91 85/85/88
f 20/20/36 26/26/26 23/23/25
f 10/10/9 5/5/3 1/1/2
f 68/68/69 62/62/64 50/50/50
f 20/20/36 32/32/38 26/26/26
f 70/70/52 49/49/51 69/69/33
f 10/10/9 1/1/2 17/17/18
f 44/44/40 43/43/19 37/37/21
f 45/45/20 41/41/49 40/40/46
