# Blender 3.5.1
# www.blender.org
mtllib cylinder.mtl
o Cylinder.002
v 0.000000 0.000000 -9.000000
v 0.000000 6.000000 -9.000000
v 3.444151 0.000000 -8.314916
v 3.444151 6.000000 -8.314916
v 6.363961 0.000000 -6.363961
v 6.363961 6.000000 -6.363961
v 8.314916 0.000000 -3.444151
v 8.314916 6.000000 -3.444151
v 9.000000 0.000000 0.000000
v 9.000000 6.000000 0.000000
v 8.314916 0.000000 3.444151
v 8.314916 6.000000 3.444151
v 6.363961 0.000000 6.363961
v 6.363961 6.000000 6.363961
v 3.444151 0.000000 8.314916
v 3.444151 6.000000 8.314916
v 0.000000 0.000000 9.000000
v 0.000000 6.000000 9.000000
v -3.444151 0.000000 8.314916
v -3.444151 6.000000 8.314916
v -6.363961 0.000000 6.363961
v -6.363961 6.000000 6.363961
v -8.314916 0.000000 3.444151
v -8.314916 6.000000 3.444151
v -9.000000 0.000000 0.000000
v -9.000000 6.000000 0.000000
v -8.314916 0.000000 -3.444151
v -8.314916 6.000000 -3.444151
v -6.363961 0.000000 -6.363961
v -6.363961 6.000000 -6.363961
v -3.444151 0.000000 -8.314916
v -3.444151 6.000000 -8.314916
vn 0.1951 -0.0000 -0.9808
vn 0.5556 -0.0000 -0.8315
vn 0.8315 -0.0000 -0.5556
vn 0.9808 -0.0000 -0.1951
vn 0.9808 -0.0000 0.1951
vn 0.8315 -0.0000 0.5556
vn 0.5556 -0.0000 0.8315
vn 0.1951 -0.0000 0.9808
vn -0.1951 -0.0000 0.9808
vn -0.5556 -0.0000 0.8315
vn -0.8315 -0.0000 0.5556
vn -0.9808 -0.0000 0.1951
vn -0.9808 -0.0000 -0.1951
vn -0.8315 -0.0000 -0.5556
vn -0.5556 -0.0000 -0.8315
vn -0.1951 -0.0000 -0.9808
vt 1.000000 0.500000
vt 0.000000 0.500000
vt 1.000000 1.000000
vt 0.000000 1.000000
vt 0.937500 0.500000
vt 0.937500 1.000000
vt 0.875000 0.500000
vt 0.875000 1.000000
vt 0.812500 0.500000
vt 0.812500 1.000000
vt 0.750000 0.500000
vt 0.750000 1.000000
vt 0.687500 0.500000
vt 0.687500 1.000000
vt 0.625000 0.500000
vt 0.625000 1.000000
vt 0.562500 0.500000
vt 0.562500 1.000000
vt 0.500000 0.500000
vt 0.500000 1.000000
vt 0.437500 0.500000
vt 0.437500 1.000000
vt 0.375000 0.500000
vt 0.375000 1.000000
vt 0.312500 0.500000
vt 0.312500 1.000000
vt 0.250000 0.500000
vt 0.250000 1.000000
vt 0.187500 0.500000
vt 0.187500 1.000000
vt 0.125000 0.500000
vt 0.125000 1.000000
vt 0.062500 0.500000
vt 0.062500 1.000000
s 0
f 2/3/1 3/5/1 1/1/1
f 4/6/2 5/7/2 3/5/2
f 6/8/3 7/9/3 5/7/3
f 8/10/4 9/11/4 7/9/4
f 10/12/5 11/13/5 9/11/5
f 12/14/6 13/15/6 11/13/6
f 14/16/7 15/17/7 13/15/7
f 16/18/8 17/19/8 15/17/8
f 18/20/9 19/21/9 17/19/9
f 20/22/10 21/23/10 19/21/10
f 22/24/11 23/25/11 21/23/11
f 24/26/12 25/27/12 23/25/12
f 26/28/13 27/29/13 25/27/13
f 28/30/14 29/31/14 27/29/14
f 30/32/15 31/33/15 29/31/15
f 32/34/16 1/2/16 31/33/16
f 2/3/1 4/6/1 3/5/1
f 4/6/2 6/8/2 5/7/2
f 6/8/3 8/10/3 7/9/3
f 8/10/4 10/12/4 9/11/4
f 10/12/5 12/14/5 11/13/5
f 12/14/6 14/16/6 13/15/6
f 14/16/7 16/18/7 15/17/7
f 16/18/8 18/20/8 17/19/8
f 18/20/9 20/22/9 19/21/9
f 20/22/10 22/24/10 21/23/10
f 22/24/11 24/26/11 23/25/11
f 24/26/12 26/28/12 25/27/12
f 26/28/13 28/30/13 27/29/13
f 28/30/14 30/32/14 29/31/14
f 30/32/15 32/34/15 31/33/15
f 32/34/16 2/4/16 1/2/16
