# Blender 3.5.1
# www.blender.org
o Icosphere
v -0.235241 -0.700735 -0.724007
v 0.003618 0.523793 0.892291
v -0.847501 0.523790 0.279175
v -0.527408 0.523791 -0.719748
v 0.521546 0.523791 -0.724008
v 0.849739 0.523791 0.272290
v 0.088470 0.994276 -0.272289
v -0.088470 -0.994276 0.272289
v -0.003618 -0.523793 0.892291
v 0.847501 -0.523790 0.279175
v 0.418908 -0.957649 0.000000
v -0.849739 -0.523791 0.272290
v -0.704983 -0.731402 -0.246228
v 0.527408 -0.523791 -0.719748
v 1.043889 0.053589 -0.000000
v 0.322581 0.053590 0.992798
v -0.587786 0.000000 0.809017
v -0.587786 0.000000 -0.809017
v -1.043889 -0.053590 -0.000000
v 0.322581 0.053590 -0.992798
v 0.338902 0.957651 0.246226
v -0.418907 0.957649 -0.000000
vn -0.1933 -0.9485 -0.2510
vn -0.0764 -0.9594 -0.2714
vn -0.6401 -0.4015 -0.6551
vn 0.8090 0.0090 0.5878
vn -0.1941 -0.0608 0.9791
vn -0.1818 -0.2080 -0.9611
vn 0.8090 0.0090 -0.5878
vn 0.4741 0.5971 0.6470
vn -0.3933 0.7398 0.5459
vn -0.7639 0.5971 -0.2448
vn -0.0029 0.6912 -0.7227
vn 0.6391 0.7398 -0.2105
vn 0.5941 0.7701 -0.2325
vn -0.3057 0.8351 -0.4573
vn -0.0271 0.9961 0.0835
vn -0.1598 0.8559 0.4918
vn 0.8240 0.4974 -0.2714
vn 0.8090 -0.0063 -0.5878
vn -0.0035 0.4974 -0.8675
vn -0.2050 0.1874 -0.9607
vn -0.8614 0.4264 -0.2760
vn -0.5162 0.4689 0.7166
vn -0.2014 0.0721 0.9768
vn 0.5128 0.4974 0.6998
vn 0.8090 -0.0063 0.5878
vn 0.0972 -0.3971 -0.9126
vn -0.8619 0.1801 -0.4740
vn -0.8383 -0.2417 -0.4886
vn -0.9031 -0.4212 -0.0835
vn -0.8712 0.0608 0.4871
vn -0.8668 -0.0721 0.4934
vn -0.5220 -0.4689 0.7124
vn 0.5287 -0.4264 0.7339
vn 0.8614 -0.4264 -0.2760
vn 0.2004 -0.8521 -0.4834
vn -0.5161 -0.8351 0.1903
vn -0.4272 -0.6912 0.5829
vn 0.7639 -0.5971 -0.2448
vn 0.3439 -0.7701 0.5373
vn 0.3933 -0.7398 0.5459
vt 0.772355 0.300268
vt 0.499255 0.356056
vt 0.503026 0.511482
vt 0.753836 0.801783
vt 0.753836 0.704047
vt 0.548496 0.679075
vt 0.260419 0.145268
vt 0.503026 0.830838
vt 0.962237 0.339081
vt 0.262051 0.201644
vt 0.060697 0.016579
vt 0.772355 0.000000
vt 0.498096 0.745554
vt 0.050988 0.680680
vt 0.440546 0.024423
vt 0.263821 0.840656
vt 0.744444 0.519255
vt 0.260419 0.000000
vt 0.498096 0.933006
vt 0.000000 0.223591
vt 0.299837 0.363029
vt 0.752609 0.441592
vt 0.123778 0.971925
vt 0.943719 0.870531
vt 0.924969 0.000000
vt 0.902271 0.356056
vt 0.247672 0.829587
vt 0.609508 0.356056
vt 0.089667 0.333261
vt 0.008664 0.747164
vt 0.260419 0.494093
vt 0.243723 0.354635
vt 0.000000 0.908553
vt 0.499255 0.228927
vt 0.772355 0.172598
vt 0.902271 0.596961
vt 0.503026 0.356056
vt 0.613583 0.277586
vt 0.771728 0.644962
vt 0.383415 0.654738
vt 0.243723 0.517504
vt 0.260419 0.704556
vt 0.752609 0.408156
vt 0.000000 0.442854
vt 0.785333 0.839296
vt 0.503026 0.547858
vt 0.247672 0.680680
vt 0.614033 0.680544
vt 0.943719 0.680544
vt 0.962237 0.149094
vt 0.338735 0.302802
vt 0.764098 0.111354
vt 0.260419 0.000000
vt 0.541628 0.101463
vt 0.803852 0.307846
vt 0.189654 0.669876
vt 0.499255 0.147827
vt 0.494816 0.704556
vt 0.752609 0.680544
vt 0.363435 0.967328
vt 0.020756 0.333261
vt 0.753836 1.000000
vt 0.137929 0.205681
vt 0.565394 0.979944
s 0
f 8/21/1 13/37/1 1/3/1
f 8/21/2 1/3/2 11/31/2
f 1/1/3 13/38/3 18/52/3
f 10/28/4 15/43/4 16/46/4
f 9/24/5 16/45/5 17/49/5
f 1/2/6 18/51/6 20/57/6
f 14/41/7 20/56/7 15/44/7
f 2/6/8 6/17/8 21/59/8
f 3/8/9 2/4/9 22/64/9
f 4/11/10 3/7/10 22/63/10
f 5/15/11 4/10/11 7/18/11
f 6/16/12 5/13/12 21/60/12
f 21/60/13 5/13/13 7/19/13
f 7/20/14 4/11/14 22/63/14
f 22/63/15 21/61/15 7/20/15
f 22/64/16 2/4/16 21/62/16
f 15/42/17 5/13/17 6/16/17
f 15/44/18 20/56/18 5/14/18
f 20/57/19 4/10/19 5/15/19
f 20/57/20 18/51/20 4/10/20
f 19/53/21 3/7/21 4/11/21
f 17/48/22 2/4/22 3/8/22
f 17/49/23 16/45/23 2/5/23
f 16/46/24 6/17/24 2/6/24
f 16/46/25 15/43/25 6/17/25
f 14/40/26 1/3/26 20/58/26
f 18/52/27 19/54/27 4/12/27
f 18/52/28 13/38/28 19/54/28
f 13/38/29 12/34/29 19/54/29
f 19/55/30 17/50/30 3/9/30
f 19/55/31 12/35/31 17/50/31
f 12/35/32 9/25/32 17/50/32
f 9/27/33 10/30/33 16/47/33
f 10/29/34 14/41/34 15/44/34
f 11/31/35 1/3/35 14/40/35
f 13/39/36 8/22/36 12/36/36
f 8/22/37 9/26/37 12/36/37
f 10/29/38 11/32/38 14/41/38
f 8/23/39 11/33/39 9/27/39
f 11/33/40 10/30/40 9/27/40
