# Blender 3.5.1
# www.blender.org
mtllib sky.mtl
o Sphere
v 0.000000 7.653669 -18.477591
v 0.000000 0.000000 -20.000000
v 0.000000 -7.653669 -18.477591
v 2.928933 18.477591 -7.071068
v 5.411961 14.142136 -13.065629
v 7.071068 7.653669 -17.071068
v 7.653669 0.000000 -18.477591
v 7.071068 -7.653669 -17.071068
v 5.411962 18.477591 -5.411961
v 10.000000 14.142136 -9.999999
v 13.065630 7.653669 -13.065629
v 14.142137 0.000000 -14.142134
v 13.065630 -7.653669 -13.065629
v 7.071068 18.477591 -2.928932
v 13.065629 14.142136 -5.411959
v 17.071068 7.653669 -7.071066
v 18.477591 0.000000 -7.653666
v 17.071068 -7.653669 -7.071066
v 7.653669 18.477591 0.000001
v 14.142134 14.142136 0.000002
v 18.477591 7.653669 0.000002
v 20.000000 0.000000 0.000003
v 18.477591 -7.653669 0.000002
v 7.071068 18.477591 2.928934
v 13.065626 14.142136 5.411963
v 17.071066 7.653669 7.071071
v 18.477589 0.000000 7.653672
v 17.071066 -7.653669 7.071071
v 5.411960 18.477591 5.411963
v 9.999996 14.142136 10.000001
v 13.065626 7.653669 13.065632
v 14.142132 0.000000 14.142139
v 13.065626 -7.653669 13.065632
v 2.928931 18.477591 7.071069
v 5.411956 14.142136 13.065629
v 7.071064 7.653669 17.071068
v 7.653663 0.000000 18.477592
v 7.071064 -7.653669 17.071068
v -0.000002 18.477591 7.653669
v -0.000004 14.142136 14.142133
v -0.000005 7.653669 18.477589
v -0.000007 0.000000 20.000000
v -0.000005 -7.653669 18.477589
v 0.000000 20.000000 0.000000
v -2.928935 18.477591 7.071067
v -5.411964 14.142136 13.065625
v -7.071072 7.653669 17.071064
v -7.653676 0.000000 18.477589
v -7.071072 -7.653669 17.071064
v -5.411963 18.477591 5.411959
v -10.000002 14.142136 9.999994
v -13.065632 7.653669 13.065624
v -14.142141 0.000000 14.142130
v -13.065632 -7.653669 13.065624
v -7.071070 18.477591 2.928929
v -13.065629 14.142136 5.411954
v -17.071068 7.653669 7.071061
v -18.477594 0.000000 7.653660
v -17.071068 -7.653669 7.071061
v -7.653669 18.477591 -0.000004
v -14.142132 14.142136 -0.000007
v -18.477589 7.653669 -0.000007
v -19.999998 0.000000 -0.000010
v -18.477589 -7.653669 -0.000007
v -7.071067 18.477591 -2.928936
v -13.065623 14.142136 -5.411966
v -17.071062 7.653669 -7.071074
v -18.477585 0.000000 -7.653678
v -17.071062 -7.653669 -7.071074
v -5.411959 18.477591 -5.411964
v -9.999991 14.142136 -10.000002
v -13.065622 7.653669 -13.065634
v -14.142127 0.000000 -14.142142
v -13.065622 -7.653669 -13.065634
v -2.928928 18.477591 -7.071070
v -5.411952 14.142136 -13.065629
v -7.071058 7.653669 -17.071068
v -7.653658 0.000000 -18.477594
v -7.071058 -7.653669 -17.071068
v 0.000005 18.477591 -7.653669
v 0.000009 14.142136 -14.142132
vn 0.1915 0.1915 -0.9626
vn 0.1098 0.8264 -0.5522
vn 0.1915 -0.1915 -0.9626
vn 0.1632 0.5481 -0.8203
vn 0.0388 0.9800 -0.1949
vn 0.3128 0.8264 -0.4681
vn 0.5453 -0.1915 -0.8161
vn 0.4647 0.5481 -0.6954
vn 0.1104 0.9800 -0.1653
vn 0.5453 0.1915 -0.8161
vn 0.8161 -0.1915 -0.5453
vn 0.6954 0.5481 -0.4647
vn 0.1653 0.9800 -0.1104
vn 0.8161 0.1915 -0.5453
vn 0.4681 0.8264 -0.3128
vn 0.1949 0.9800 -0.0388
vn 0.9626 0.1915 -0.1915
vn 0.5522 0.8264 -0.1098
vn 0.9626 -0.1915 -0.1915
vn 0.8203 0.5481 -0.1632
vn 0.9626 0.1915 0.1915
vn 0.5522 0.8264 0.1098
vn 0.9626 -0.1915 0.1915
vn 0.8203 0.5481 0.1632
vn 0.1949 0.9800 0.0388
vn 0.8161 -0.1915 0.5453
vn 0.6954 0.5481 0.4647
vn 0.1653 0.9800 0.1104
vn 0.8161 0.1915 0.5453
vn 0.4681 0.8264 0.3128
vn 0.5453 -0.1915 0.8161
vn 0.4647 0.5481 0.6954
vn 0.1104 0.9800 0.1653
vn 0.5453 0.1915 0.8161
vn 0.3128 0.8264 0.4681
vn 0.1915 0.1915 0.9626
vn 0.1098 0.8264 0.5522
vn 0.1915 -0.1915 0.9626
vn 0.1632 0.5481 0.8203
vn 0.0388 0.9800 0.1949
vn -0.1915 0.1915 0.9626
vn -0.1098 0.8264 0.5522
vn -0.1915 -0.1915 0.9626
vn -0.1632 0.5481 0.8203
vn -0.0388 0.9800 0.1949
vn -0.5453 -0.1915 0.8161
vn -0.4647 0.5481 0.6954
vn -0.1104 0.9800 0.1653
vn -0.5453 0.1915 0.8161
vn -0.3128 0.8264 0.4681
vn -0.6954 0.5481 0.4647
vn -0.1653 0.9800 0.1104
vn -0.8161 0.1915 0.5453
vn -0.4681 0.8264 0.3128
vn -0.8161 -0.1915 0.5453
vn -0.9626 0.1915 0.1915
vn -0.5522 0.8264 0.1098
vn -0.9626 -0.1915 0.1915
vn -0.8203 0.5481 0.1632
vn -0.1949 0.9800 0.0388
vn -0.5522 0.8264 -0.1098
vn -0.9626 -0.1915 -0.1915
vn -0.8203 0.5481 -0.1632
vn -0.1949 0.9800 -0.0388
vn -0.9626 0.1915 -0.1915
vn -0.8161 -0.1915 -0.5453
vn -0.6954 0.5481 -0.4647
vn -0.1653 0.9800 -0.1104
vn -0.8161 0.1915 -0.5453
vn -0.4681 0.8264 -0.3128
vn -0.1104 0.9800 -0.1653
vn -0.5453 0.1915 -0.8161
vn -0.3128 0.8264 -0.4681
vn -0.5453 -0.1915 -0.8161
vn -0.4647 0.5481 -0.6954
vn -0.1915 0.1915 -0.9626
vn -0.1098 0.8264 -0.5522
vn -0.1915 -0.1915 -0.9626
vn -0.1632 0.5481 -0.8203
vn -0.0388 0.9800 -0.1949
vt 0.318435 0.622494
vt 0.225125 0.684654
vt 0.070577 0.786449
vt 0.464316 0.552940
vt 0.427589 0.612180
vt 0.381845 0.681634
vt 0.319726 0.775491
vt 0.214230 0.941878
vt 0.488784 0.561643
vt 0.477479 0.630339
vt 0.462022 0.711009
vt 0.442003 0.826830
vt 0.415880 1.000000
vt 0.514572 0.560315
vt 0.530548 0.628117
vt 0.548036 0.710886
vt 0.573439 0.817093
vt 0.620115 1.000000
vt 0.537684 0.549244
vt 0.578479 0.605366
vt 0.625839 0.673620
vt 0.691731 0.766285
vt 0.793013 0.898867
vt 0.555365 0.530681
vt 0.613811 0.566523
vt 0.681619 0.610620
vt 0.779314 0.670574
vt 0.926816 0.760348
vt 0.563887 0.506564
vt 0.631331 0.517600
vt 0.712689 0.532372
vt 0.823527 0.548804
vt 0.997275 0.576031
vt 0.563387 0.480959
vt 0.631506 0.465001
vt 0.710945 0.447802
vt 0.818657 0.420595
vt 0.989949 0.378874
vt 0.552968 0.457212
vt 0.609268 0.417063
vt 0.677056 0.370890
vt 0.765600 0.304574
vt 0.907500 0.200549
vt 0.499058 0.496115
vt 0.533889 0.439746
vt 0.570808 0.381953
vt 0.615676 0.312329
vt 0.672316 0.217505
vt 0.763596 0.067767
vt 0.509614 0.430802
vt 0.522051 0.361614
vt 0.536795 0.281576
vt 0.553215 0.172549
vt 0.580815 0.000000
vt 0.483875 0.431910
vt 0.468622 0.363640
vt 0.452690 0.283037
vt 0.426436 0.176092
vt 0.386853 0.006345
vt 0.460089 0.442197
vt 0.420125 0.385272
vt 0.375038 0.316403
vt 0.310343 0.227271
vt 0.209915 0.085022
vt 0.442507 0.461319
vt 0.383741 0.423675
vt 0.315552 0.376884
vt 0.222009 0.318613
vt 0.075416 0.224152
vt 0.433565 0.485671
vt 0.364618 0.473320
vt 0.282994 0.455939
vt 0.174536 0.436904
vt 0.002190 0.403596
vt 0.434644 0.511556
vt 0.366037 0.526837
vt 0.282261 0.542927
vt 0.175732 0.564755
vt 0.000000 0.598830
vt 0.445614 0.534942
vt 0.388362 0.575766
s 0
f 1/1/1 7/7/1 2/2/1
f 81/81/2 4/4/2 5/5/2
f 2/2/3 8/8/3 3/3/3
f 81/81/4 6/6/4 1/1/4
f 80/80/5 44/44/5 4/4/5
f 4/4/6 10/10/6 5/5/6
f 8/8/7 12/12/7 13/13/7
f 5/5/8 11/11/8 6/6/8
f 4/4/9 44/44/9 9/9/9
f 6/6/10 12/12/10 7/7/10
f 12/12/11 18/18/11 13/13/11
f 10/10/12 16/16/12 11/11/12
f 9/9/13 44/44/13 14/14/13
f 12/12/14 16/16/14 17/17/14
f 9/9/15 15/15/15 10/10/15
f 14/14/16 44/44/16 19/19/16
f 16/16/17 22/22/17 17/17/17
f 14/14/18 20/20/18 15/15/18
f 18/18/19 22/22/19 23/23/19
f 16/16/20 20/20/20 21/21/20
f 21/21/21 27/27/21 22/22/21
f 20/20/22 24/24/22 25/25/22
f 22/22/23 28/28/23 23/23/23
f 20/20/24 26/26/24 21/21/24
f 19/19/25 44/44/25 24/24/25
f 27/27/26 33/33/26 28/28/26
f 25/25/27 31/31/27 26/26/27
f 24/24/28 44/44/28 29/29/28
f 27/27/29 31/31/29 32/32/29
f 25/25/30 29/29/30 30/30/30
f 33/33/31 37/37/31 38/38/31
f 30/30/32 36/36/32 31/31/32
f 29/29/33 44/44/33 34/34/33
f 31/31/34 37/37/34 32/32/34
f 29/29/35 35/35/35 30/30/35
f 37/37/36 41/41/36 42/42/36
f 34/34/37 40/40/37 35/35/37
f 37/37/38 43/43/38 38/38/38
f 35/35/39 41/41/39 36/36/39
f 34/34/40 44/44/40 39/39/40
f 41/41/41 48/48/41 42/42/41
f 39/39/42 46/46/42 40/40/42
f 42/42/43 49/49/43 43/43/43
f 40/40/44 47/47/44 41/41/44
f 39/39/45 44/44/45 45/45/45
f 48/48/46 54/54/46 49/49/46
f 46/46/47 52/52/47 47/47/47
f 45/45/48 44/44/48 50/50/48
f 48/48/49 52/52/49 53/53/49
f 45/45/50 51/51/50 46/46/50
f 51/51/51 57/57/51 52/52/51
f 50/50/52 44/44/52 55/55/52
f 53/53/53 57/57/53 58/58/53
f 50/50/54 56/56/54 51/51/54
f 53/53/55 59/59/55 54/54/55
f 58/58/56 62/62/56 63/63/56
f 56/56/57 60/60/57 61/61/57
f 58/58/58 64/64/58 59/59/58
f 56/56/59 62/62/59 57/57/59
f 55/55/60 44/44/60 60/60/60
f 60/60/61 66/66/61 61/61/61
f 63/63/62 69/69/62 64/64/62
f 61/61/63 67/67/63 62/62/63
f 60/60/64 44/44/64 65/65/64
f 63/63/65 67/67/65 68/68/65
f 68/68/66 74/74/66 69/69/66
f 66/66/67 72/72/67 67/67/67
f 65/65/68 44/44/68 70/70/68
f 68/68/69 72/72/69 73/73/69
f 65/65/70 71/71/70 66/66/70
f 70/70/71 44/44/71 75/75/71
f 73/73/72 77/77/72 78/78/72
f 70/70/73 76/76/73 71/71/73
f 73/73/74 79/79/74 74/74/74
f 71/71/75 77/77/75 72/72/75
f 77/77/76 2/2/76 78/78/76
f 76/76/77 80/80/77 81/81/77
f 78/78/78 3/3/78 79/79/78
f 76/76/79 1/1/79 77/77/79
f 75/75/80 44/44/80 80/80/80
f 1/1/1 6/6/1 7/7/1
f 81/81/2 80/80/2 4/4/2
f 2/2/3 7/7/3 8/8/3
f 81/81/4 5/5/4 6/6/4
f 4/4/6 9/9/6 10/10/6
f 8/8/7 7/7/7 12/12/7
f 5/5/8 10/10/8 11/11/8
f 6/6/10 11/11/10 12/12/10
f 12/12/11 17/17/11 18/18/11
f 10/10/12 15/15/12 16/16/12
f 12/12/14 11/11/14 16/16/14
f 9/9/15 14/14/15 15/15/15
f 16/16/17 21/21/17 22/22/17
f 14/14/18 19/19/18 20/20/18
f 18/18/19 17/17/19 22/22/19
f 16/16/20 15/15/20 20/20/20
f 21/21/21 26/26/21 27/27/21
f 20/20/22 19/19/22 24/24/22
f 22/22/23 27/27/23 28/28/23
f 20/20/24 25/25/24 26/26/24
f 27/27/26 32/32/26 33/33/26
f 25/25/27 30/30/27 31/31/27
f 27/27/29 26/26/29 31/31/29
f 25/25/30 24/24/30 29/29/30
f 33/33/31 32/32/31 37/37/31
f 30/30/32 35/35/32 36/36/32
f 31/31/34 36/36/34 37/37/34
f 29/29/35 34/34/35 35/35/35
f 37/37/36 36/36/36 41/41/36
f 34/34/37 39/39/37 40/40/37
f 37/37/38 42/42/38 43/43/38
f 35/35/39 40/40/39 41/41/39
f 41/41/41 47/47/41 48/48/41
f 39/39/42 45/45/42 46/46/42
f 42/42/43 48/48/43 49/49/43
f 40/40/44 46/46/44 47/47/44
f 48/48/46 53/53/46 54/54/46
f 46/46/47 51/51/47 52/52/47
f 48/48/49 47/47/49 52/52/49
f 45/45/50 50/50/50 51/51/50
f 51/51/51 56/56/51 57/57/51
f 53/53/53 52/52/53 57/57/53
f 50/50/54 55/55/54 56/56/54
f 53/53/55 58/58/55 59/59/55
f 58/58/56 57/57/56 62/62/56
f 56/56/57 55/55/57 60/60/57
f 58/58/58 63/63/58 64/64/58
f 56/56/59 61/61/59 62/62/59
f 60/60/61 65/65/61 66/66/61
f 63/63/62 68/68/62 69/69/62
f 61/61/63 66/66/63 67/67/63
f 63/63/65 62/62/65 67/67/65
f 68/68/66 73/73/66 74/74/66
f 66/66/67 71/71/67 72/72/67
f 68/68/69 67/67/69 72/72/69
f 65/65/70 70/70/70 71/71/70
f 73/73/72 72/72/72 77/77/72
f 70/70/73 75/75/73 76/76/73
f 73/73/74 78/78/74 79/79/74
f 71/71/75 76/76/75 77/77/75
f 77/77/76 1/1/76 2/2/76
f 76/76/77 75/75/77 80/80/77
f 78/78/78 2/2/78 3/3/78
f 76/76/79 81/81/79 1/1/79
