# Blender 3.5.1
# www.blender.org
o Bush
v 0.962453 0.945238 -2.545617
v 2.068310 -0.726756 0.037439
v -2.068311 2.005154 -0.037439
v -0.962453 -0.945238 2.545617
v -2.934473 -1.396127 -2.403209
v -2.934473 -1.396127 -0.123966
v -0.960591 -1.396126 1.015655
v 1.013291 -1.396126 -0.123966
v 0.139812 -1.396127 -3.235094
v -2.403167 0.459097 -1.838945
v -2.158671 0.477796 -0.084324
v -0.728036 0.357599 0.422427
v 0.175047 0.396090 -0.674636
v -0.609987 0.293139 -2.626727
v -1.135292 0.976032 -0.974115
v 0.245564 -0.452290 -3.041499
v 0.884142 -0.433591 0.200076
v -2.752033 -0.553788 -0.158631
v -2.860323 -0.515297 -2.600406
v -1.242155 -0.618248 0.798261
v -2.487834 1.071959 0.908526
v -4.445753 -1.532743 -1.308777
v -0.436190 2.222041 -2.254134
v -2.394109 -0.382661 -4.471436
v -3.362763 0.488781 -0.637406
v -3.219702 -1.745120 -3.163133
v -0.394047 1.770934 -1.603265
v -0.250986 -0.462967 -4.128992
v -3.243238 0.345074 -3.356087
v -0.770752 -2.379423 -4.318298
v -0.080947 2.210166 -1.418731
v 2.391538 -0.982476 -2.380941
v -0.998695 -0.418128 1.965864
v -3.197049 0.520118 0.247426
v 1.804857 -0.023298 0.537682
v -0.393497 2.193347 -1.180757
v -0.050628 -2.407005 0.746786
v -3.523857 -0.556420 1.132201
v 2.248916 -0.659199 0.446807
v -1.224313 1.659532 0.832222
v 1.249956 0.793074 -1.256567
v -1.835966 1.215606 -3.095450
v 1.829192 -1.071323 -2.950753
v -1.256730 -1.927190 -4.789637
v -2.468574 1.112852 -0.322665
v -3.577968 -0.988489 0.438116
v -2.194222 0.230811 -3.841034
v -3.303616 -2.680783 -3.080253
v -1.661952 1.602227 -0.270406
v -1.972558 -1.443213 1.740046
v -3.627714 0.041916 -2.937672
v -3.938320 -1.725125 -0.927219
v -1.431179 -0.951931 2.089493
v -2.943805 -2.356146 0.116073
v -2.886325 1.510358 -0.726425
v -4.398951 -0.362002 -2.699845
vn -0.5230 -0.8000 -0.2939
vn -0.8353 0.2901 0.4670
vn -0.5823 0.7647 -0.2760
vn -0.7254 0.2655 -0.6351
vn 0.5746 0.3865 -0.7214
vn 0.5977 0.8008 0.0379
vn 0.7953 0.3333 0.5065
vn -0.1947 0.2652 0.9443
vn -0.5373 0.6838 0.4937
vn 0.1442 0.7558 -0.6387
vn 0.1366 0.6759 0.7242
vn 0.0427 0.9991 0.0017
vn -0.0151 0.1613 0.9868
vn 0.9584 -0.0003 0.2855
vn 0.4651 0.0755 -0.8820
vn -0.8559 -0.0246 -0.5165
vn -0.8650 0.1940 0.4628
vn 0.6945 -0.6915 0.1991
vn 0.4737 -0.6462 0.5983
vn -0.2210 -0.4969 0.8392
vn -0.2274 -0.7274 -0.6474
vn -0.1192 -0.0135 -0.9928
vn -0.4440 -0.6742 0.5902
vn 0.8955 -0.4102 0.1727
vn 0.8122 -0.4946 -0.3093
vn 0.8296 -0.1306 -0.5429
vn -0.4381 -0.6795 -0.5886
vn -0.2955 -0.4781 0.8271
vn 0.1495 -0.7748 -0.6143
vn -0.1171 -0.0129 -0.9930
vn -0.3399 -0.4940 0.8003
vn 0.9299 -0.2979 0.2158
vn 0.7530 -0.4143 -0.5112
vn 0.8417 -0.1269 -0.5248
vt 0.571840 0.000000
vt 1.000000 0.000000
vt 0.571840 1.000000
vt 1.000000 1.000000
vt 0.253230 0.978182
vt 0.517099 0.999921
vt 0.514791 0.000079
vt 0.222588 0.081971
vt 0.023275 0.306683
vt -0.001626 0.728298
vt 0.328516 0.753508
vt 0.514871 0.686826
vt 0.468996 0.327204
vt 0.289897 0.329478
vt 0.208384 0.450310
vt 0.190377 0.661038
vt 0.360242 0.536790
vt 0.089055 0.661083
vt 0.131825 0.337312
vt 0.519895 0.139426
vt 0.519895 0.879134
vt 0.268364 0.866902
vt 0.297233 0.176623
vt 0.571840 0.000000
vt 1.000000 0.000000
vt 0.571840 1.000000
vt 1.000000 1.000000
vt 0.571840 0.000000
vt 1.000000 0.000000
vt 0.571840 1.000000
vt 1.000000 1.000000
vt 0.571840 0.000000
vt 1.000000 0.000000
vt 0.571840 1.000000
vt 1.000000 1.000000
vt 0.571840 0.000000
vt 1.000000 0.000000
vt 0.571840 1.000000
vt 1.000000 1.000000
vt 0.571840 0.000000
vt 1.000000 0.000000
vt 0.571840 1.000000
vt 1.000000 1.000000
vt 0.571840 0.000000
vt 1.000000 0.000000
vt 0.571840 1.000000
vt 1.000000 1.000000
vt 0.571840 0.000000
vt 1.000000 0.000000
vt 0.571840 1.000000
vt 1.000000 1.000000
vt 0.571840 0.000000
vt 1.000000 0.000000
vt 0.571840 1.000000
vt 1.000000 1.000000
vt 0.571840 0.000000
vt 1.000000 0.000000
vt 0.571840 1.000000
vt 1.000000 1.000000
s 0
f 2/2/1 3/3/1 1/1/1
s 1
f 18/21/2 10/11/3 19/22/4
f 16/18/5 13/15/6 17/19/7
f 20/23/8 11/13/9 18/20/2
f 19/22/4 14/16/10 16/18/5
f 17/19/7 12/14/11 20/23/8
f 10/11/3 15/17/12 14/16/10
f 13/15/6 15/17/12 12/14/11
f 11/12/9 15/17/12 10/11/3
f 14/16/10 15/17/12 13/15/6
f 12/14/11 15/17/12 11/13/9
f 17/19/7 7/8/13 8/9/14
f 19/22/4 9/10/15 5/5/16
f 20/23/8 6/7/17 7/8/13
f 16/18/5 8/9/14 9/10/15
f 18/21/2 5/5/16 6/6/17
s 0
f 22/25/18 23/26/18 21/24/18
f 26/29/19 27/30/19 25/28/19
f 30/33/20 31/34/20 29/32/20
f 33/36/21 36/39/21 35/38/21
f 37/40/22 40/43/22 39/42/22
f 42/45/23 43/46/23 41/44/23
f 46/49/24 47/50/24 45/48/24
f 49/52/25 52/55/25 51/54/25
f 54/57/26 55/58/26 53/56/26
f 2/2/27 4/4/27 3/3/27
s 1
f 18/21/2 11/12/9 10/11/3
f 16/18/5 14/16/10 13/15/6
f 20/23/8 12/14/11 11/13/9
f 19/22/4 10/11/3 14/16/10
f 17/19/7 13/15/6 12/14/11
f 17/19/7 20/23/8 7/8/13
f 19/22/4 16/18/5 9/10/15
f 20/23/8 18/20/2 6/7/17
f 16/18/5 17/19/7 8/9/14
f 18/21/2 19/22/4 5/5/16
s 0
f 22/25/18 24/27/18 23/26/18
f 26/29/19 28/31/19 27/30/19
f 30/33/28 32/35/28 31/34/28
f 33/36/29 34/37/29 36/39/29
f 37/40/30 38/41/30 40/43/30
f 42/45/31 44/47/31 43/46/31
f 46/49/32 48/51/32 47/50/32
f 49/52/33 50/53/33 52/55/33
f 54/57/34 56/59/34 55/58/34
