# Blender 3.5.1
# www.blender.org
o Grass
v -0.000000 5.945097 1.578961
v 0.000000 0.000000 1.578961
v -0.000001 5.945097 -1.578960
v -0.000000 -0.000000 -1.578960
v 1.578960 5.945097 0.000000
v 1.578960 -0.000000 -0.000000
v -1.578961 5.945096 0.000001
v -1.578961 -0.000000 0.000000
v 1.578960 1.567837 -0.000000
v -1.578961 1.567837 0.000000
v 0.000000 1.567837 1.578961
v -0.000000 1.567837 -1.578960
vn 1.0000 -0.0000 -0.0000
vn -0.0000 -0.0000 -1.0000
vt 0.000000 1.000000
vt 0.000000 0.726562
vt 0.289062 1.000000
vt 0.289062 0.726562
vt 0.289062 1.000000
vt 0.289062 0.726562
vt 0.000000 1.000000
vt 0.000000 0.726562
vt 0.289062 0.820659
vt 0.000000 0.820659
vt 0.000000 0.820659
vt 0.289062 0.820659
s 0
f 2/2/1 12/12/1 11/11/1
f 9/9/2 8/8/2 10/10/2
f 9/9/2 7/7/2 5/5/2
f 11/11/1 3/3/1 1/1/1
f 2/2/1 4/4/1 12/12/1
f 9/9/2 6/6/2 8/8/2
f 9/9/2 10/10/2 7/7/2
f 11/11/1 12/12/1 3/3/1
