# Blender 3.5.1
# www.blender.org
o Mushroom
v -0.772350 -0.000000 0.000000
v 0.829806 -0.000000 0.000000
v -0.772350 2.079336 0.000000
v 0.829806 2.079336 0.000000
v 0.028725 0.000000 0.801074
v 0.028725 0.000000 -0.801081
v 0.028725 2.079336 0.801074
v 0.028725 2.079336 -0.801081
vn -0.0000 -0.0000 1.0000
vn 1.0000 -0.0000 -0.0000
vt 0.640625 0.000000
vt 0.781250 0.000000
vt 0.640625 0.187500
vt 0.781250 0.187500
vt 0.640625 0.000000
vt 0.781250 0.000000
vt 0.640625 0.187500
vt 0.781250 0.187500
s 0
f 2/2/1 3/3/1 1/1/1
f 5/5/2 8/8/2 7/7/2
f 2/2/1 4/4/1 3/3/1
f 5/5/2 6/6/2 8/8/2
