# Blender 3.5.1
# www.blender.org
o Mushroom.002
v -0.772350 -0.000000 0.000000
v 0.829806 -0.000000 0.000000
v -0.772350 2.888448 0.000000
v 0.829806 2.888448 0.000000
v 0.000000 0.000000 0.772350
v 0.000000 0.000000 -0.829806
v 0.000000 2.888448 0.772350
v 0.000000 2.888448 -0.829806
v -0.772350 1.855336 0.000000
v 0.829806 1.855336 0.000000
v 0.000000 1.855336 0.772350
v 0.000000 1.855336 -0.829806
vn -0.0000 -0.0000 1.0000
vn 1.0000 -0.0000 -0.0000
vt 0.554688 0.000000
vt 0.437500 0.000000
vt 0.554688 0.140625
vt 0.437500 0.140625
vt 0.433762 0.000000
vt 0.554960 0.000000
vt 0.433762 0.140625
vt 0.554960 0.140625
vt 0.554688 0.062768
vt 0.437500 0.062768
vt 0.433762 0.062768
vt 0.554960 0.062768
s 0
f 10/10/1 3/3/1 9/9/1
f 12/12/2 7/7/2 11/11/2
f 2/2/1 9/9/1 1/1/1
f 6/6/2 11/11/2 5/5/2
f 10/10/1 4/4/1 3/3/1
f 12/12/2 8/8/2 7/7/2
f 2/2/1 10/10/1 9/9/1
f 6/6/2 12/12/2 11/11/2
